<?xml version="1.0" encoding="UTF-8"?>
<svg xmlns="http://www.w3.org/2000/svg" viewBox="0 0 800 500" width="800" height="500">
  <rect width="800" height="500" fill="#0D0D0F"/>
  <defs>
    <radialGradient id="g" cx="50%" cy="62%" r="50%">
      <stop offset="0%" stop-color="#C9A84C" stop-opacity="0.08"/>
      <stop offset="100%" stop-color="#C9A84C" stop-opacity="0"/>
    </radialGradient>
  </defs>
  <rect width="800" height="500" fill="url(#g)"/>

  <g transform="translate(280, 130) scale(1.5)">
    <g stroke="#C9A84C" stroke-width="2" stroke-linecap="round" opacity="0.5">
      <line x1="100" y1="0"   x2="100" y2="14"/>
      <line x1="100" y1="186" x2="100" y2="200"/>
      <line x1="0"   y1="100" x2="14"  y2="100"/>
      <line x1="186" y1="100" x2="200" y2="100"/>
      <line x1="34"  y1="34"  x2="42"  y2="42"/>
      <line x1="158" y1="34"  x2="166" y2="42"/>
      <line x1="34"  y1="166" x2="42"  y2="158"/>
      <line x1="158" y1="166" x2="166" y2="158"/>
    </g>
    <path fill="none" stroke="#C9A84C" stroke-width="3" stroke-linecap="round" stroke-linejoin="round" d="
      M 18 134 Q 78 38 100 28 Q 122 38 182 134
    "/>
    <circle cx="48"  cy="92"  r="3" fill="#C9A84C"/>
    <circle cx="152" cy="92"  r="3" fill="#C9A84C"/>
    <circle cx="100" cy="134" r="10" fill="#C9A84C"/>
  </g>

  <text x="400" y="380" font-family="'Inter', sans-serif" font-weight="800" font-size="36" fill="#ECECEC" text-anchor="middle" letter-spacing="6">MUNRO</text>
  <text x="400" y="420" font-family="'Inter', sans-serif" font-size="13" fill="#a0a0a8" text-anchor="middle" letter-spacing="3">FINDS THE SIGNAL IN THE NOISE</text>
</svg>
